<?xml version="1.0" standalone="no"?>
<!DOCTYPE svg PUBLIC "-//W3C//DTD SVG 20010904//EN"
 "http://www.w3.org/TR/2001/REC-SVG-20010904/DTD/svg10.dtd">
<svg version="1.0" xmlns="http://www.w3.org/2000/svg"
 width="146.000000pt" height="146.000000pt" viewBox="0 0 146.000000 146.000000"
 preserveAspectRatio="xMidYMid meet">
<metadata>
Created by potrace 1.14, written by Peter Selinger 2001-2017
</metadata>
<g transform="translate(0.000000,146.000000) scale(0.100000,-0.100000)"
fill="#000000" stroke="none">
<path d="M670 1423 c0 -5 -13 -22 -30 -39 -16 -18 -26 -35 -23 -38 4 -3 1 -6
-5 -6 -7 0 -12 -7 -12 -15 0 -8 -3 -15 -7 -15 -5 0 -17 -12 -27 -27 -13 -17
-14 -24 -5 -19 8 4 6 1 -3 -7 -10 -8 -18 -21 -18 -30 0 -8 -4 -17 -9 -19 -8
-3 -60 -100 -62 -115 0 -5 -7 -19 -15 -33 -18 -34 -44 -127 -37 -134 4 -3 0
-6 -7 -6 -7 0 -11 -3 -7 -6 3 -3 2 -17 -3 -30 -5 -13 -6 -24 -1 -24 5 0 5 -15
2 -32 -8 -37 3 -122 21 -165 6 -15 10 -33 9 -39 -1 -7 5 -14 14 -18 8 -3 15
-12 15 -21 0 -8 5 -15 12 -15 6 0 9 -3 5 -6 -3 -3 5 -18 18 -32 13 -14 22 -29
19 -34 -3 -4 2 -8 11 -8 9 0 13 -4 10 -10 -3 -5 2 -10 11 -10 10 0 15 -3 11
-6 -7 -8 17 -34 32 -34 6 0 11 -3 11 -8 0 -4 10 -12 23 -17 17 -8 22 -19 23
-49 0 -42 -17 -106 -28 -106 -5 0 -8 -7 -8 -15 0 -7 -6 -18 -13 -22 -8 -4 -16
-18 -19 -31 -4 -12 -2 -20 3 -16 5 3 9 0 9 -6 0 -7 7 -9 16 -6 10 4 26 -1 38
-11 12 -10 15 -11 9 -3 -15 17 -17 34 -3 25 6 -3 10 -1 10 5 0 6 4 9 9 6 5 -3
12 1 15 10 3 8 2 12 -4 9 -19 -12 -10 7 13 25 17 14 19 21 10 31 -9 9 -8 17 4
35 8 13 11 24 7 24 -11 0 18 20 30 20 5 0 2 -8 -5 -17 -10 -11 -10 -14 -1 -9
7 4 12 2 12 -4 0 -6 5 -8 11 -4 8 4 7 9 -2 15 -8 5 -10 9 -5 9 6 0 5 5 -1 11
-6 6 -9 18 -6 27 4 9 2 13 -4 9 -5 -3 -10 0 -10 8 0 12 3 12 16 2 12 -10 14
-9 8 6 -4 11 -3 16 4 12 5 -4 7 -16 3 -28 -7 -22 -6 -22 14 -3 l21 18 -21 18
c-17 13 -18 17 -5 17 9 0 14 -4 11 -9 -3 -4 -1 -8 5 -8 5 0 12 6 15 13 4 8 5
7 5 -3 -2 -30 1 -43 9 -36 7 8 8 13 11 44 1 15 3 15 11 2 8 -13 10 -12 10 3 0
9 5 17 10 17 7 0 7 -6 0 -20 -6 -11 -16 -20 -23 -20 -8 0 -8 -3 2 -9 11 -7 11
-9 0 -14 -9 -4 -8 -6 5 -6 13 -1 16 4 12 15 -4 11 -2 15 8 11 10 -4 12 0 9 16
-5 22 -5 22 11 2 10 -11 15 -14 11 -8 -8 16 19 55 31 45 4 -4 3 0 -4 10 -8 10
-9 19 -3 22 5 3 11 3 14 -1 2 -5 2 -2 1 5 -2 6 1 12 6 12 6 0 1 9 -11 21 -17
17 -18 23 -7 36 11 14 10 15 -12 9 -14 -4 -20 -4 -13 1 6 5 11 17 10 28 -2 15
3 19 17 17 17 -3 18 -2 7 12 -7 9 -17 14 -20 11 -4 -2 -8 2 -8 10 0 13 3 13
17 0 20 -18 36 -20 23 -2 -15 19 -24 49 -13 42 6 -3 10 -13 10 -21 0 -8 5 -12
11 -9 7 5 5 15 -6 31 -15 23 -10 30 18 25 4 0 7 4 7 11 0 9 3 9 12 0 7 -7 16
-12 22 -12 5 0 2 6 -9 13 -13 10 -15 16 -6 21 9 6 9 11 -1 23 -7 8 -14 27 -16
42 -2 14 -10 30 -18 34 -8 4 -14 13 -14 18 0 6 6 7 13 3 9 -6 9 -4 0 6 -10 11
-8 19 10 39 l22 26 -27 -24 c-17 -15 -33 -21 -44 -17 -9 4 -14 9 -11 13 4 3 2
12 -4 20 -6 7 -8 13 -5 13 4 0 1 10 -6 23 -7 12 -11 28 -9 36 1 7 -2 10 -8 6
-7 -4 -11 4 -11 19 0 13 -7 31 -15 39 -8 8 -11 18 -7 23 4 5 -2 2 -12 -6 -17
-14 -18 -13 -12 7 5 15 2 24 -10 31 -10 6 -13 12 -6 16 6 3 17 -3 25 -15 8
-11 18 -16 21 -11 3 6 -1 13 -10 16 -8 3 -13 10 -10 15 4 5 -5 8 -19 6 -14 -1
-28 2 -32 8 -3 6 -1 7 5 3 7 -4 12 -2 12 4 0 6 4 9 8 6 5 -3 9 1 9 9 0 11 -3
12 -14 3 -11 -9 -18 -7 -31 7 -9 10 -12 15 -7 12 6 -3 16 3 23 14 7 10 8 19 3
19 -5 0 -11 -6 -14 -12 -3 -10 -7 -10 -17 -1 -10 9 -6 15 19 27 17 9 31 19 31
21 0 8 -25 1 -32 -9 -4 -6 -13 -5 -22 3 -8 7 -19 11 -23 8 -7 -5 -11 12 -16
66 -1 9 -5 17 -10 17 -4 0 -7 6 -6 13 4 31 -2 67 -11 67 -5 0 -10 -3 -10 -7z
m75 -173 c3 -5 1 -10 -4 -10 -6 0 -11 5 -11 10 0 6 2 10 4 10 3 0 8 -4 11 -10z
m103 -215 c-3 -3 -9 2 -12 12 -6 14 -5 15 5 6 7 -7 10 -15 7 -18z m85 -172
c-3 -7 -6 -13 -8 -13 -2 0 -5 6 -8 13 -3 8 1 14 8 14 7 0 11 -6 8 -14z m20
-52 c-2 -15 1 -20 10 -15 6 4 9 3 4 -1 -4 -5 0 -16 8 -25 14 -15 14 -18 -1
-30 -13 -12 -17 -11 -24 0 -5 8 -6 18 -4 22 3 4 -1 8 -8 8 -9 0 -9 3 2 10 13
8 8 14 -11 12 -3 -1 -4 10 -1 24 6 30 28 26 25 -5z m-58 -269 c-3 -3 -11 0
-18 7 -9 10 -8 11 6 5 10 -3 15 -9 12 -12z m24 -26 c9 -10 8 -16 -4 -26 -8 -7
-13 -15 -11 -19 2 -3 -2 -14 -9 -24 -11 -15 -14 -16 -25 -2 -11 13 -9 20 10
40 l23 25 -24 1 c-22 0 -23 1 -4 9 28 12 31 12 44 -4z m-49 -21 c0 -2 -9 -3
-19 -2 -11 0 -18 5 -15 9 4 6 34 0 34 -7z m-36 -50 c-26 -18 -30 -11 -7 12 10
10 20 15 22 10 1 -4 -5 -14 -15 -22z m-104 -105 c0 -5 -4 -10 -10 -10 -5 0
-10 5 -10 10 0 6 5 10 10 10 6 0 10 -4 10 -10z m-30 -100 c0 -5 -5 -10 -11
-10 -5 0 -7 5 -4 10 3 6 8 10 11 10 2 0 4 -4 4 -10z"/>
<path d="M954 763 c2 -10 6 -17 10 -16 15 3 16 11 2 22 -12 10 -14 9 -12 -6z"/>
<path d="M903 513 c4 -6 -2 -18 -13 -28 -24 -22 -26 -37 -5 -28 9 3 13 8 10
11 -3 3 2 13 11 23 12 13 12 19 3 25 -7 4 -10 3 -6 -3z"/>
<path d="M752 1315 c4 -4 0 -14 -10 -22 -16 -12 -16 -13 2 -6 15 5 17 3 11 -8
-5 -8 -4 -11 0 -6 14 12 14 36 2 44 -7 3 -9 3 -5 -2z"/>
<path d="M779 1193 c-13 -16 -12 -17 4 -4 9 7 17 15 17 17 0 8 -8 3 -21 -13z"/>
<path d="M855 1080 c3 -5 8 -10 11 -10 2 0 4 5 4 10 0 6 -5 10 -11 10 -5 0 -7
-4 -4 -10z"/>
<path d="M880 1054 c-11 -12 -10 -18 5 -32 18 -16 18 -16 6 1 -11 14 -11 20
-1 32 7 8 10 15 7 15 -2 0 -10 -7 -17 -16z"/>
<path d="M885 990 c-3 -6 1 -7 9 -4 18 7 21 14 7 14 -6 0 -13 -4 -16 -10z"/>
<path d="M905 941 c-3 -5 -1 -12 5 -16 6 -4 8 -11 5 -16 -3 -5 1 -6 10 -3 14
6 14 8 -2 21 -17 14 -17 14 0 9 11 -3 16 -2 12 4 -8 13 -22 13 -30 1z"/>
<path d="M950 699 c0 -5 4 -9 9 -9 5 0 8 -8 6 -17 -2 -10 -4 -18 -5 -18 -2 0
-11 -38 -12 -52 -2 -16 -11 -16 -26 -1 -8 8 -12 8 -12 1 0 -6 7 -16 15 -23 11
-9 12 -16 5 -25 -8 -9 -8 -15 0 -20 5 -3 10 1 10 9 0 9 7 13 20 11 11 -2 23 1
26 7 4 7 2 8 -4 4 -7 -4 -12 -2 -12 3 0 6 -5 11 -11 11 -5 0 -7 -5 -3 -12 5
-7 3 -8 -6 -3 -10 6 -9 11 4 21 13 9 14 13 4 18 -7 3 -4 5 8 3 21 -4 26 15 10
42 -7 10 -3 12 15 7 l24 -7 -23 14 c-25 14 -20 29 6 21 11 -4 10 -1 -3 7 -25
17 -45 20 -45 8z m25 -58 c3 -5 2 -12 -3 -15 -5 -3 -9 1 -9 9 0 17 3 19 12 6z"/>
<path d="M950 531 c0 -6 4 -13 10 -16 6 -3 7 1 4 9 -7 18 -14 21 -14 7z"/>
<path d="M915 429 c-4 -6 -5 -12 -2 -15 2 -3 7 2 10 11 7 17 1 20 -8 4z"/>
<path d="M610 396 c0 -2 7 -7 16 -10 8 -3 12 -2 9 4 -6 10 -25 14 -25 6z"/>
<path d="M782 354 c-7 -8 -19 -11 -25 -7 -7 4 -6 -1 2 -11 8 -9 15 -30 16 -46
2 -30 -9 -40 -18 -17 -4 9 -6 9 -6 0 -1 -7 7 -17 18 -22 15 -8 18 -7 18 7 0
53 3 61 23 57 11 -2 23 1 26 7 4 7 2 8 -4 4 -7 -4 -12 -3 -12 3 0 5 8 15 18
20 9 6 13 11 7 11 -5 1 -19 3 -30 5 -11 2 -26 -3 -33 -11z m35 -15 c-11 -17
-31 -19 -44 -4 -4 4 -3 5 3 2 7 -4 14 -1 17 6 3 8 12 14 20 14 12 0 13 -4 4
-18z"/>
<path d="M741 233 c12 -15 12 -16 -6 -9 -16 6 -18 5 -7 -5 10 -11 16 -10 30 5
9 11 11 16 5 12 -7 -4 -13 -2 -13 3 0 6 -5 11 -11 11 -8 0 -7 -6 2 -17z"/>
<path d="M710 208 c0 -4 12 -20 27 -35 14 -15 23 -23 20 -16 -10 16 3 44 16
36 6 -4 7 -1 2 7 -6 10 -10 10 -20 -3 -11 -15 -13 -15 -28 1 -9 9 -17 13 -17
10z"/>
<path d="M706 155 c-20 -15 -12 -20 23 -16 8 2 10 -2 5 -10 -5 -8 -3 -10 6 -4
10 6 10 11 -3 20 -9 7 -14 15 -10 18 11 12 -1 7 -21 -8z"/>
<path d="M670 136 c0 -3 9 -10 20 -16 11 -6 20 -8 20 -6 0 3 -9 10 -20 16 -11
6 -20 8 -20 6z"/>
<path d="M660 105 c0 -2 6 -8 13 -14 10 -8 14 -7 14 2 0 8 -6 14 -14 14 -7 0
-13 -1 -13 -2z"/>
<path d="M730 80 c0 -5 5 -10 11 -10 5 0 7 5 4 10 -3 6 -8 10 -11 10 -2 0 -4
-4 -4 -10z"/>
</g>
</svg>
