<svg width="98" height="25" viewBox="0 0 98 25" fill="none" xmlns="http://www.w3.org/2000/svg">
<g clip-path="url(#clip0_12_12)">
<path d="M1.41377 25C1.19777 25 1.01777 24.928 0.873766 24.784C0.729766 24.64 0.657766 24.46 0.657766 24.244C0.657766 24.172 0.669766 24.1 0.693766 24.028C0.717766 23.956 0.741766 23.884 0.765766 23.812L8.82977 12.148L1.26977 0.987998C1.19777 0.843998 1.16177 0.699999 1.16177 0.555999C1.16177 0.339999 1.23377 0.159999 1.37777 0.0159998C1.52177 -0.128001 1.68977 -0.200002 1.88177 -0.200002H5.58977C5.87777 -0.200002 6.10577 -0.128001 6.27377 0.0159998C6.44177 0.159999 6.58577 0.315999 6.70577 0.483998L11.9978 8.26L17.3258 0.483998C17.4218 0.315999 17.5538 0.159999 17.7218 0.0159998C17.9138 -0.128001 18.1538 -0.200002 18.4418 -0.200002H21.9338C22.1498 -0.200002 22.3298 -0.128001 22.4738 0.0159998C22.6178 0.159999 22.6898 0.339999 22.6898 0.555999C22.6898 0.699999 22.6418 0.843998 22.5458 0.987998L15.0218 12.148L23.0858 23.812C23.1338 23.884 23.1698 23.956 23.1938 24.028C23.2178 24.1 23.2298 24.172 23.2298 24.244C23.2298 24.46 23.1458 24.64 22.9778 24.784C22.8338 24.928 22.6658 25 22.4738 25H18.6578C18.3698 25 18.1418 24.928 17.9738 24.784C17.8058 24.64 17.6738 24.496 17.5778 24.352L11.8178 16.216L6.16577 24.352C6.06977 24.496 5.93777 24.64 5.76977 24.784C5.60177 24.928 5.36177 25 5.04977 25H1.41377Z" fill="#97C2B8"/>
<path d="M25.1057 25C24.9137 25 24.7337 24.928 24.5657 24.784C24.4217 24.64 24.3497 24.46 24.3497 24.244C24.3497 24.148 24.3737 24.04 24.4217 23.92L33.0977 0.7C33.1697 0.459998 33.3017 0.255998 33.4937 0.0879989C33.7097 -0.104002 33.9977 -0.200002 34.3577 -0.200002H38.2817C38.6417 -0.200002 38.9177 -0.104002 39.1097 0.0879989C39.3017 0.255998 39.4457 0.459998 39.5417 0.7L48.2177 23.92C48.2417 24.04 48.2537 24.148 48.2537 24.244C48.2537 24.46 48.1817 24.64 48.0377 24.784C47.8937 24.928 47.7257 25 47.5337 25H44.4017C44.0657 25 43.8137 24.928 43.6457 24.784C43.5017 24.616 43.4057 24.46 43.3577 24.316L41.6657 19.924H30.9737L29.2817 24.316C29.2337 24.46 29.1257 24.616 28.9577 24.784C28.8137 24.928 28.5737 25 28.2377 25H25.1057ZM32.2337 15.784H40.4057L36.3017 4.66L32.2337 15.784ZM52.4786 25C52.2386 25 52.0346 24.916 51.8666 24.748C51.6986 24.58 51.6146 24.376 51.6146 24.136V0.7C51.6146 0.435999 51.6986 0.219999 51.8666 0.0519993C52.0346 -0.116001 52.2386 -0.200002 52.4786 -0.200002H61.8026C64.7066 -0.200002 66.9986 0.471998 68.6786 1.816C70.3586 3.16 71.1986 5.116 71.1986 7.684C71.1986 9.46 70.7546 10.936 69.8666 12.112C69.0026 13.288 67.8386 14.14 66.3746 14.668L71.6306 23.848C71.7026 23.992 71.7386 24.124 71.7386 24.244C71.7386 24.46 71.6546 24.64 71.4866 24.784C71.3426 24.928 71.1746 25 70.9826 25H67.7066C67.2986 25 66.9866 24.892 66.7706 24.676C66.5546 24.46 66.3866 24.244 66.2666 24.028L61.6226 15.496H56.6186V24.136C56.6186 24.376 56.5346 24.58 56.3666 24.748C56.2226 24.916 56.0186 25 55.7546 25H52.4786ZM56.6186 11.428H61.6946C63.1586 11.428 64.2506 11.104 64.9706 10.456C65.6906 9.784 66.0506 8.848 66.0506 7.648C66.0506 6.448 65.6906 5.512 64.9706 4.84C64.2746 4.144 63.1826 3.796 61.6946 3.796H56.6186V11.428ZM74.2893 25C74.0973 25 73.9173 24.928 73.7493 24.784C73.6053 24.64 73.5333 24.46 73.5333 24.244C73.5333 24.148 73.5573 24.04 73.6053 23.92L82.2813 0.7C82.3533 0.459998 82.4853 0.255998 82.6773 0.0879989C82.8933 -0.104002 83.1813 -0.200002 83.5413 -0.200002H87.4653C87.8253 -0.200002 88.1013 -0.104002 88.2933 0.0879989C88.4853 0.255998 88.6293 0.459998 88.7253 0.7L97.4013 23.92C97.4253 24.04 97.4373 24.148 97.4373 24.244C97.4373 24.46 97.3653 24.64 97.2213 24.784C97.0773 24.928 96.9093 25 96.7173 25H93.5853C93.2493 25 92.9973 24.928 92.8293 24.784C92.6853 24.616 92.5893 24.46 92.5413 24.316L90.8493 19.924H80.1573L78.4653 24.316C78.4173 24.46 78.3093 24.616 78.1413 24.784C77.9973 24.928 77.7573 25 77.4213 25H74.2893ZM81.4173 15.784H89.5893L85.4853 4.66L81.4173 15.784Z" fill="black"/>
</g>
<defs>
<clipPath id="clip0_12_12">
<rect width="98" height="25" fill="white"/>
</clipPath>
</defs>
</svg>
